<svg width="48" height="48" viewBox="0 0 48 48" fill="none" xmlns="http://www.w3.org/2000/svg">
  <rect width="48" height="48" rx="12" fill="#181717"/>
  <path fill-rule="evenodd" clip-rule="evenodd" d="M24 11.5C18.201 11.5 13.5 16.201 13.5 22C13.5 26.413 16.496 30.201 20.404 31.663C20.58 31.714 20.62 31.606 20.62 31.523C20.62 31.428 20.613 30.828 20.609 30.008C17.465 30.651 16.646 28.69 16.646 28.69C16.127 27.319 15.368 26.936 15.368 26.936C14.25 26.149 15.426 26.163 15.426 26.163C16.63 26.243 17.261 27.399 17.261 27.399C18.336 29.305 20.078 28.793 20.73 28.49C20.792 27.747 21.033 27.273 21.306 26.991C18.019 26.701 14.615 25.656 14.615 18.857C14.615 17.602 15.052 16.587 15.778 15.807C15.691 15.516 15.316 14.37 15.863 12.872C15.863 12.872 16.83 12.551 20.615 14.478C21.53 14.221 22.516 14.091 23.5 14.086C24.484 14.091 25.47 14.221 26.386 14.478C30.169 12.551 31.135 12.872 31.135 12.872C31.683 14.37 31.307 15.516 31.221 15.807C31.949 16.587 32.383 17.602 32.383 18.857C32.383 25.67 28.973 26.697 25.678 26.985C26.099 27.345 26.473 28.055 26.473 29.167C26.473 31.007 26.459 32.466 26.459 33.154C26.459 33.24 26.496 33.344 26.68 33.299C30.589 31.825 33.5 28.041 33.5 22C33.5 16.201 28.799 11.5 23 11.5H24Z" fill="white"/>
</svg>
