<svg width="48" height="48" viewBox="0 0 48 48" fill="none" xmlns="http://www.w3.org/2000/svg">
  <rect width="48" height="48" rx="12" fill="#0A66C2"/>
  <path d="M15.5 18.5H20V35H15.5V18.5Z" fill="white"/>
  <path d="M17.75 16C19.33 16 20.5 14.83 20.5 13.25C20.5 11.67 19.33 10.5 17.75 10.5C16.17 10.5 15 11.67 15 13.25C15 14.83 16.17 16 17.75 16Z" fill="white"/>
  <path d="M23.5 18.5H28V21.5H28.08C28.95 20.08 30.73 18.5 33.3 18.5C38 18.5 39 21.38 39 26.05V35H34.5V26.9C34.5 24.74 34.47 21.9 31.3 21.9C28.1 21.9 27.75 24.38 27.75 26.75V35H23.5V18.5Z" fill="white"/>
</svg>
