<svg width="48" height="48" viewBox="0 0 48 48" fill="none" xmlns="http://www.w3.org/2000/svg">
  <rect width="48" height="48" rx="12" fill="#25D366"/>
  <path d="M34.5 13.5C31.168 10.168 26.832 8.5 22 8.5C13.72 8.5 7 15.22 7 23.5C7 26.24 7.8 28.82 9.18 31.04L7 41.5L17.74 39.32C19.9 40.66 22.36 41.5 25 41.5C33.28 41.5 40 34.78 40 26.5C40 21.668 38.332 17.332 35 14L34.5 13.5Z" fill="white"/>
  <path d="M33.3 29.9C32.94 30.68 32.02 31.06 31.27 30.85C28.43 30.21 25.9 28.86 23.95 26.95C22.02 25.02 20.68 22.49 20.05 19.65C19.83 18.9 20.22 17.98 21.01 17.64C21.36 17.5 21.76 17.49 22.1 17.61C23.18 18.03 25.52 19.18 26.75 20.03C27.16 20.3 27.55 20.78 27.5 21.3C27.36 22.96 26.42 24.43 25.25 25.6C24.14 26.7 22.72 27.66 21.4 28.55C21 28.84 20.9 29.3 21.11 29.72C21.4 30.4 21.8 31.03 22.3 31.6C22.84 32.21 23.55 32.62 24.33 32.77C25.03 32.9 25.62 32.72 26.18 32.4C28.32 31.02 30.3 29.18 31.86 27.01C32.06 26.73 32.45 26.63 32.75 26.78C33.77 27.33 34.7 28.03 35.51 28.86C35.99 29.35 35.97 30.06 35.5 30.54L33.3 29.9Z" fill="#25D366"/>
</svg>
